<?xml version="1.0" standalone="no"?>
<!DOCTYPE svg PUBLIC "-//W3C//DTD SVG 20010904//EN"
 "http://www.w3.org/TR/2001/REC-SVG-20010904/DTD/svg10.dtd">
<svg version="1.0" xmlns="http://www.w3.org/2000/svg"
 width="500.000000pt" height="500.000000pt" viewBox="0 0 500.000000 500.000000"
 preserveAspectRatio="xMidYMid meet">
<metadata>
Created by potrace 1.14, written by Peter Selinger 2001-2017
</metadata>
<g transform="translate(0.000000,500.000000) scale(0.100000,-0.100000)"
fill="#000000" stroke="none">
<path d="M2427 4834 c-1 -1 -27 -4 -57 -8 -121 -13 -294 -78 -412 -156 -132
-86 -267 -241 -363 -415 -15 -27 -44 -79 -65 -115 -20 -36 -49 -85 -62 -110
-14 -25 -83 -144 -153 -265 -71 -121 -138 -238 -150 -260 -12 -22 -45 -78 -72
-125 -57 -96 -236 -407 -266 -460 -10 -19 -28 -50 -40 -69 -11 -19 -16 -31
-10 -28 6 4 51 10 100 14 317 24 575 -23 848 -158 289 -142 492 -340 702 -684
63 -103 121 -206 188 -330 26 -49 68 -125 92 -167 23 -43 43 -79 43 -82 0 -7
337 -591 377 -653 52 -81 143 -183 209 -233 32 -25 61 -48 64 -51 3 -4 48 -29
100 -57 106 -56 230 -97 334 -110 74 -10 261 -8 311 3 170 36 299 92 421 183
330 246 478 660 378 1058 -31 124 -66 195 -288 577 -57 98 -357 619 -378 657
-14 25 -82 142 -150 260 -211 364 -424 733 -450 780 -130 231 -328 565 -358
605 -61 81 -162 178 -241 230 -119 79 -288 144 -413 161 -45 6 -234 13 -239 8z"/>
<path d="M929 2256 c-2 -2 -27 -6 -56 -10 -29 -3 -89 -18 -135 -32 -160 -51
-280 -125 -403 -248 -200 -201 -298 -454 -282 -729 8 -136 14 -166 49 -272 69
-208 198 -376 394 -511 79 -56 247 -123 344 -139 25 -4 54 -9 65 -12 22 -4
218 -4 250 1 11 1 34 6 50 9 17 4 39 9 51 11 91 18 210 69 307 133 222 146
373 372 433 648 22 105 8 328 -31 461 -97 333 -396 604 -745 675 -53 11 -283
23 -291 15z"/>
</g>
</svg>
